<svg xmlns="http://www.w3.org/2000/svg" xmlns:xlink="http://www.w3.org/1999/xlink" version="1.1" id="Layer_1" x="0px" y="0px" width="100%" viewBox="0 0 1024 1024" enable-background="new 0 0 1024 1024" xml:space="preserve">

<path fill="#C58050" opacity="1.000000" stroke="none" d=" M116.082062,860.846191   C104.338730,859.156860 101.219986,847.003723 108.833290,838.285339   C129.119736,815.054382 149.613831,792.003906 170.128387,768.973450   C182.914520,754.619141 196.034714,740.560913 208.740707,726.137024   C225.496689,707.115662 241.908020,687.790955 258.629822,668.739197   C271.077240,654.557312 283.794098,640.612122 296.366333,626.539551   C300.992523,621.361328 305.548187,616.119995 310.649963,611.135010   C328.700470,628.668640 346.269318,645.942139 363.756958,663.297485   C370.366577,669.857056 378.209045,673.046143 387.502258,673.034973   C423.994385,672.991089 460.486786,672.950745 496.978668,673.054932   C506.637268,673.082520 515.776184,675.265381 523.433960,681.650208   C527.992004,685.450500 532.462891,689.355347 536.974304,693.565186   C537.370178,694.800171 537.573120,695.854614 538.187256,696.541016   C553.332947,713.469788 568.421387,730.451782 583.747009,747.216858   C591.203735,755.373840 595.527466,764.113770 595.263794,775.737061   C594.626587,803.821106 595.038269,831.928894 594.555664,860.030884   C436.336243,860.028259 278.588348,860.019470 120.840424,860.049866   C119.254250,860.050171 117.668175,860.569275 116.082062,860.846191  z"/>
<path fill="#B26919" opacity="1.000000" stroke="none" d=" M595.027100,860.027161   C595.038269,831.928894 594.626587,803.821106 595.263794,775.737061   C595.527466,764.113770 591.203735,755.373840 583.747009,747.216858   C568.421387,730.451782 553.332947,713.469788 538.187256,696.541016   C537.573120,695.854614 537.370178,694.800171 537.328003,693.458984   C544.341797,689.281677 551.403687,686.126404 557.587830,681.735046   C574.468384,669.748169 591.254456,657.592529 607.560364,644.841797   C624.886597,631.293335 639.660950,615.043762 653.533997,598.039001   C661.270935,588.555481 668.491028,578.650330 675.944092,568.935242   C685.958984,579.798096 696.056152,590.586548 705.974304,601.537048   C743.589355,643.067505 781.144958,684.651733 818.725647,726.213318   C844.594238,754.822205 870.478699,783.416748 896.330933,812.040405   C903.347290,819.808960 910.492249,827.476990 917.183716,835.519409   C925.452820,845.457947 921.872192,857.109253 909.019653,860.640503   C906.688110,860.216492 905.036377,860.026855 903.384583,860.026611   C814.958435,860.012451 726.532288,860.005737 638.106140,860.023010   C623.788635,860.025818 609.471069,860.142273 595.121216,860.161926   C595.088867,860.117676 595.027100,860.027161 595.027100,860.027161  z"/>
<path fill="#F88629" opacity="1.000000" stroke="none" d=" M675.832397,568.628235   C668.491028,578.650330 661.270935,588.555481 653.533997,598.039001   C639.660950,615.043762 624.886597,631.293335 607.560364,644.841797   C591.254456,657.592529 574.468384,669.748169 557.587830,681.735046   C551.403687,686.126404 544.341797,689.281677 537.326660,693.107056   C532.462891,689.355347 527.992004,685.450500 523.433960,681.650208   C515.776184,675.265381 506.637268,673.082520 496.978668,673.054932   C460.486786,672.950745 423.994385,672.991089 387.502258,673.034973   C378.209045,673.046143 370.366577,669.857056 363.756958,663.297485   C346.269318,645.942139 328.700470,628.668640 310.980957,611.054565   C319.774200,600.150391 328.700500,589.511536 337.739441,578.969238   C348.517487,566.398621 359.336792,553.862488 370.241547,541.401794   C379.845551,530.427490 389.488556,519.482544 399.372528,508.762665   C401.109528,506.878784 404.172607,506.259735 406.525024,504.888123   C408.486145,503.744598 410.303284,502.354156 412.579102,501.462097   C412.974121,519.676270 412.964203,537.501404 412.978485,555.326599   C412.986084,564.778015 418.888336,572.002686 428.006226,573.785828   C437.209625,575.585632 446.125183,571.137207 449.947449,562.588867   C450.167358,561.878418 450.283264,561.469116 450.588196,560.839966   C450.821075,560.052429 450.864960,559.484619 450.953125,558.457520   C450.943542,538.346313 450.889679,518.694397 450.915039,498.975891   C450.994293,498.909302 451.201263,498.914154 451.411682,498.892212   C451.622070,498.870300 452.033752,498.772644 452.033752,498.772644   C455.608154,498.873474 459.182465,499.059967 462.756927,499.062195   C507.678833,499.090271 552.601562,498.941223 597.522034,499.205566   C608.744019,499.271545 618.247681,504.008911 625.849487,512.600159   C642.367065,531.267761 659.084778,549.758301 675.832397,568.628235  z"/>
<path fill="#EEE1CF" opacity="1.000000" stroke="none" d=" M582.860840,341.010193   C574.249817,340.679443 565.634644,339.986084 557.028503,340.083862   C527.523132,340.419098 499.275299,346.639252 472.340973,358.789276   C467.260956,361.080902 461.977966,362.922577 456.136230,364.684387   C454.656616,362.512115 453.110809,360.628937 453.106659,358.742340   C452.977203,300.085175 452.999847,241.427628 452.993225,182.770142   C452.992737,178.391113 452.047974,173.703094 457.022797,171.039978   C459.444275,170.099213 461.865753,169.158447 464.984741,168.091766   C466.791382,167.315369 467.900482,166.664902 469.009583,166.014404   C477.614807,164.340881 486.156616,162.087555 494.840973,161.137314   C506.279266,159.885696 517.850586,158.890198 529.325867,159.204437   C540.966919,159.523193 552.665100,160.984238 564.144775,163.030350   C574.908386,164.948822 585.513672,167.973587 595.997253,171.144470   C600.638062,172.548126 605.016357,175.186722 609.143066,177.841095   C616.121399,182.329666 616.617371,189.500076 616.042114,197.833191   C616.345154,208.960190 616.921936,219.152344 616.952637,229.346146   C617.065674,266.853271 617.011169,304.360992 616.953857,341.868378   C616.951233,343.588562 616.309387,345.307770 615.588013,346.977631   C604.427429,344.955292 593.644104,342.982727 582.860840,341.010193  z"/>
<path fill="#E7D8C4" opacity="1.000000" stroke="none" d=" M615.965332,347.027405   C616.309387,345.307770 616.951233,343.588562 616.953857,341.868378   C617.011169,304.360992 617.065674,266.853271 616.952637,229.346146   C616.921936,219.152344 616.345154,208.960190 616.039246,198.280533   C624.226501,201.297974 632.270874,205.130661 640.586914,208.235672   C656.289307,214.098633 672.041748,219.870071 687.980530,225.041321   C697.892151,228.257095 708.054993,231.344818 718.336792,232.615707   C732.275330,234.338577 746.491516,235.324127 760.481201,234.587296   C769.603516,234.106827 778.454956,229.641769 787.575134,227.629959   C796.349304,225.694504 803.471619,220.961639 810.614014,216.013580   C811.578125,215.345688 812.940430,215.252655 815.316223,214.528061   C814.431641,221.502930 813.893372,227.524399 812.874695,233.463486   C808.966675,256.249237 801.618042,277.764648 789.351807,297.531372   C774.899902,320.820312 755.503235,338.807678 731.449280,351.678894   C709.956543,363.179565 687.169250,371.406219 663.151733,375.704956   C639.116394,380.006897 615.041626,380.301300 591.199829,374.026337   C589.172058,373.492676 587.281860,372.436584 585.494080,371.146973   C594.577271,364.558838 603.563049,358.542969 612.348877,352.248016   C613.969299,351.087006 614.780518,348.796539 615.965332,347.027405  z"/>
<path fill="#754213" opacity="1.000000" stroke="none" d=" M449.843445,562.890015   C446.125183,571.137207 437.209625,575.585632 428.006226,573.785828   C418.888336,572.002686 412.986084,564.778015 412.978485,555.326599   C412.964203,537.501404 412.974121,519.676270 412.915222,501.381317   C412.938354,497.251801 413.091431,493.592041 413.091766,489.932312   C413.102020,378.810120 413.092346,267.687958 413.104187,156.565765   C413.105164,147.435699 415.367371,139.072968 424.964325,135.918320   C437.111877,131.925293 451.099670,136.338577 451.026062,152.110107   C451.004303,156.774780 451.005066,161.439560 450.652039,166.889740   C450.199310,168.827637 449.994568,169.980103 449.994568,171.132553   C449.995880,236.426849 450.014221,301.721130 450.018250,367.482422   C450.028809,411.627533 450.051941,455.305634 450.049835,499.453369   C450.017883,518.021423 449.988953,536.119995 450.043884,554.218262   C450.048645,555.785339 450.607391,557.350708 450.908875,558.916870   C450.864960,559.484619 450.821075,560.052429 450.311890,560.905579   C449.845581,561.757324 449.844513,562.323669 449.843445,562.890015  z"/>
<path fill="#DAC6AC" opacity="1.000000" stroke="none" d=" M615.588013,346.977600   C614.780518,348.796539 613.969299,351.087006 612.348877,352.248016   C603.563049,358.542969 594.577271,364.558838 585.364807,370.808533   C585.028748,363.386780 585.132446,355.822052 584.857239,348.271088   C584.777771,346.090118 583.608948,343.948792 582.900146,341.399750   C593.644104,342.982727 604.427429,344.955292 615.588013,346.977600  z"/>
<path fill="#B5581A" opacity="1.000000" stroke="none" d=" M116.538284,860.932800   C117.668175,860.569275 119.254250,860.050171 120.840424,860.049866   C278.588348,860.019470 436.336243,860.028259 594.555664,860.030884   C595.027100,860.027161 595.088867,860.117676 595.080566,860.325195   C595.072327,860.532776 595.033875,860.869934 595.033875,860.869934   C580.220703,860.948425 565.407593,861.093140 550.594421,861.095154   C407.392426,861.115173 264.190399,861.111572 120.988396,861.110291   C119.657104,861.110291 118.325813,861.051025 116.538284,860.932800  z"/>
<path fill="#F4EEE2" opacity="1.000000" stroke="none" d=" M456.603027,171.025726   C452.047974,173.703094 452.992737,178.391113 452.993225,182.770142   C452.999847,241.427628 452.977203,300.085175 453.106659,358.742340   C453.110809,360.628937 454.656616,362.512115 455.737640,364.675751   C454.628876,366.284027 453.266205,367.613434 451.489197,368.655212   C451.008057,367.915161 450.941223,367.462769 450.952606,366.546814   C451.011139,334.812866 450.959229,303.542450 450.980438,272.272064   C451.003326,238.510345 451.094574,204.748642 451.156006,170.986938   C452.831757,170.995132 454.507507,171.003326 456.603027,171.025726  z"/>
<path fill="#993803" opacity="1.000000" stroke="none" d=" M595.490479,860.970215   C595.033875,860.869934 595.072327,860.532776 595.112915,860.369507   C609.471069,860.142273 623.788635,860.025818 638.106140,860.023010   C726.532288,860.005737 814.958435,860.012451 903.384583,860.026611   C905.036377,860.026855 906.688110,860.216492 908.651428,860.587769   C900.648560,860.948364 892.334167,861.117859 884.019775,861.117737   C787.995544,861.116821 691.971375,861.090210 595.490479,860.970215  z"/>
<path fill="#5C1C01" opacity="1.000000" stroke="none" d=" M451.083160,170.595917   C451.094574,204.748642 451.003326,238.510345 450.980438,272.272064   C450.959229,303.542450 451.011139,334.812866 450.741699,366.544952   C450.452606,367.006622 450.030884,367.015442 450.030884,367.015442   C450.014221,301.721130 449.995880,236.426849 449.994568,171.132553   C449.994568,169.980103 450.199310,168.827637 450.565552,167.353088   C450.885162,168.088943 450.947754,169.146927 451.083160,170.595917  z"/>
<path fill="#4E0D0A" opacity="1.000000" stroke="none" d=" M450.018250,367.482422   C450.030884,367.015442 450.452606,367.006622 450.663513,367.008484   C450.941223,367.462769 451.008057,367.915161 451.170410,368.698425   C451.205322,397.425781 451.136597,425.822327 451.087524,454.218872   C451.063416,468.170349 451.075745,482.121887 451.058716,496.851349   C451.097687,498.057587 451.149475,498.485870 451.201263,498.914154   C451.201263,498.914154 450.994293,498.909302 450.725098,498.957153   C450.455902,499.004974 450.075104,498.983734 450.075104,498.983734   C450.051941,455.305634 450.028809,411.627533 450.018250,367.482422  z"/>
<path fill="#F4EEE2" opacity="1.000000" stroke="none" d=" M468.635773,166.010483   C467.900482,166.664902 466.791382,167.315369 465.298401,167.933380   C466.030334,167.269455 467.146149,166.638000 468.635773,166.010483  z"/>
<path fill="#F4EEE2" opacity="1.000000" stroke="none" d=" M451.411682,498.892212   C451.149475,498.485870 451.097687,498.057587 451.132263,497.314819   C451.477386,497.420074 451.736084,497.839783 452.014282,498.516052   C452.033752,498.772644 451.622070,498.870300 451.411682,498.892212  z"/>
<path fill="#5C1C01" opacity="1.000000" stroke="none" d=" M450.049835,499.453369   C450.075104,498.983734 450.455902,499.004974 450.645874,499.023743   C450.889679,518.694397 450.943542,538.346313 450.953125,558.457520   C450.607391,557.350708 450.048645,555.785339 450.043884,554.218262   C449.988953,536.119995 450.017883,518.021423 450.049835,499.453369  z"/>

</svg>